<svg width="32" height="32" viewBox="0 0 32 32" fill="none" xmlns="http://www.w3.org/2000/svg">
<path d="M27.2276 27.2659H22.4928V19.8406C22.4928 18.0699 22.4613 15.7906 20.0303 15.7906C17.5642 15.7906 17.1868 17.7198 17.1868 19.7117V27.2654H12.4522V11.996H16.9975V14.0827H17.0611C17.516 13.3038 18.1733 12.6631 18.9631 12.2287C19.7529 11.7943 20.6455 11.5826 21.5459 11.6161C26.3449 11.6161 27.2296 14.7771 27.2296 18.8893L27.2276 27.2659ZM7.10961 9.90882C5.5921 9.90907 4.36168 8.67733 4.36143 7.1577C4.36118 5.63808 5.5911 4.40595 7.10861 4.4057C8.62613 4.40533 9.85654 5.63708 9.85679 7.1567C9.85692 7.88646 9.56757 8.58638 9.05237 9.1025C8.53718 9.61862 7.83835 9.90866 7.10961 9.90882ZM9.47707 27.2661H4.73729V11.996H9.47694L9.47707 27.2661ZM29.5881 0.00232899H2.35809C1.07114 -0.012171 0.0157281 1.0202 0 2.30895V29.6906C0.0152288 30.9799 1.07051 32.0133 2.35797 31.9998H29.5881C30.8783 32.0158 31.9377 30.9824 31.9556 29.6906V2.30683C31.9372 1.01558 30.8777 -0.016671 29.5881 0.000203986" fill="#0A66C2"/>
</svg>
